HIERARCHY
ROOT hip
{
  OFFSET 0 0 0
  CHANNELS 6 Xposition Yposition Zposition Zrotation Yrotation Xrotation
  JOINT abdomen
  {
    OFFSET 0 20.6881 -0.73152
    CHANNELS 3 Zrotation Xrotation Yrotation
    JOINT chest
    {
      OFFSET 0 11.7043 -0.48768
      CHANNELS 3 Zrotation Xrotation Yrotation
      JOINT neck
      {
        OFFSET 0 22.1894 -2.19456
        CHANNELS 3 Zrotation Xrotation Yrotation
        JOINT head
        {
          OFFSET -0.24384 7.07133 1.2192
          CHANNELS 3 Zrotation Xrotation Yrotation
          JOINT leftEye
          {
            OFFSET 4.14528 8.04674 8.04672
            CHANNELS 3 Zrotation Xrotation Yrotation
            End Site
            {
              OFFSET 1 0 0
            }
          }
          JOINT rightEye
          {
            OFFSET -3.6576 8.04674 8.04672
            CHANNELS 3 Zrotation Xrotation Yrotation
            End Site
            {
              OFFSET 1 0 0
            }
          }
        }
      }
      JOINT rCollar
      {
        OFFSET -2.68224 19.2634 -4.8768
        CHANNELS 3 Zrotation Xrotation Yrotation
        JOINT rShldr
        {
          OFFSET -8.77824 -1.95073 1.46304
          CHANNELS 3 Zrotation Xrotation Yrotation
          JOINT rForeArm
          {
            OFFSET -28.1742 -1.7115 0.48768
            CHANNELS 3 Zrotation Xrotation Yrotation
            JOINT rHand
            {
              OFFSET -22.5879 0.773209 7.07136
              CHANNELS 3 Zrotation Xrotation Yrotation
              JOINT rThumb1
              {
                OFFSET -1.2192 -0.487915 3.41376
                CHANNELS 3 Zrotation Xrotation Yrotation
                JOINT rThumb2
                {
                  OFFSET -3.37035 -0.52449 3.41376
                  CHANNELS 3 Zrotation Xrotation Yrotation
                  End Site
                  {
                    OFFSET -1.78271 -1.18214 1.43049
                  }
                }
              }
              JOINT rIndex1
              {
                OFFSET -7.75947 0.938293 5.60832
                CHANNELS 3 Zrotation Xrotation Yrotation
                JOINT rIndex2
                {
                  OFFSET -2.54057 -0.884171 1.56538
                  CHANNELS 3 Zrotation Xrotation Yrotation
                  End Site
                  {
                    OFFSET -1.62519 -0.234802 1.16502
                  }
                }
              }
              JOINT rMid1
              {
                OFFSET -8.24714 1.18213 3.41376
                CHANNELS 3 Zrotation Xrotation Yrotation
                JOINT rMid2
                {
                  OFFSET -3.10165 -0.590103 1.0647
                  CHANNELS 3 Zrotation Xrotation Yrotation
                  End Site
                  {
                    OFFSET -2.48547 -0.328903 0.83742
                  }
                }
              }
              JOINT rRing1
              {
                OFFSET -8.82822 0.546677 1.51678
                CHANNELS 3 Zrotation Xrotation Yrotation
                JOINT rRing2
                {
                  OFFSET -2.60934 -0.819778 -0.0198488
                  CHANNELS 3 Zrotation Xrotation Yrotation
                  End Site
                  {
                    OFFSET -2.33842 -0.294052 0.168128
                  }
                }
              }
              JOINT rPinky1
              {
                OFFSET -8.27202 -0.0477905 -0.4584
                CHANNELS 3 Zrotation Xrotation Yrotation
                JOINT rPinky2
                {
                  OFFSET -1.82734 -0.647385 -0.700984
                  CHANNELS 3 Zrotation Xrotation Yrotation
                  End Site
                  {
                    OFFSET -1.69225 -0.51767 -0.607171
                  }
                }
              }
            }
          }
        }
      }
      JOINT lCollar
      {
        OFFSET 2.68224 19.2634 -4.8768
        CHANNELS 3 Zrotation Xrotation Yrotation
        JOINT lShldr
        {
          OFFSET 8.77824 -1.95073 1.46304
          CHANNELS 3 Zrotation Xrotation Yrotation
          JOINT lForeArm
          {
            OFFSET 28.1742 -1.7115 0.48768
            CHANNELS 3 Zrotation Xrotation Yrotation
            JOINT lHand
            {
              OFFSET 22.5879 0.773209 7.07136
              CHANNELS 3 Zrotation Xrotation Yrotation
              JOINT lThumb1
              {
                OFFSET 1.2192 -0.487915 3.41376
                CHANNELS 3 Zrotation Xrotation Yrotation
                JOINT lThumb2
                {
                  OFFSET 3.37035 -0.52449 3.41376
                  CHANNELS 3 Zrotation Xrotation Yrotation
                  End Site
                  {
                    OFFSET 1.78271 -1.18214 1.43049
                  }
                }
              }
              JOINT lIndex1
              {
                OFFSET 7.75947 0.938293 5.60832
                CHANNELS 3 Zrotation Xrotation Yrotation
                JOINT lIndex2
                {
                  OFFSET 2.54057 -0.884171 1.56538
                  CHANNELS 3 Zrotation Xrotation Yrotation
                  End Site
                  {
                    OFFSET 1.62519 -0.234802 1.16502
                  }
                }
              }
              JOINT lMid1
              {
                OFFSET 8.24714 1.18213 3.41376
                CHANNELS 3 Zrotation Xrotation Yrotation
                JOINT lMid2
                {
                  OFFSET 3.10165 -0.590103 1.0647
                  CHANNELS 3 Zrotation Xrotation Yrotation
                  End Site
                  {
                    OFFSET 2.48547 -0.328903 0.83742
                  }
                }
              }
              JOINT lRing1
              {
                OFFSET 8.82822 0.546677 1.51678
                CHANNELS 3 Zrotation Xrotation Yrotation
                JOINT lRing2
                {
                  OFFSET 2.60934 -0.819778 -0.0198488
                  CHANNELS 3 Zrotation Xrotation Yrotation
                  End Site
                  {
                    OFFSET 2.33842 -0.294052 0.168128
                  }
                }
              }
              JOINT lPinky1
              {
                OFFSET 8.27202 -0.0477905 -0.4584
                CHANNELS 3 Zrotation Xrotation Yrotation
                JOINT lPinky2
                {
                  OFFSET 1.82734 -0.647385 -0.700984
                  CHANNELS 3 Zrotation Xrotation Yrotation
                  End Site
                  {
                    OFFSET 1.69225 -0.51767 -0.607171
                  }
                }
              }
            }
          }
        }
      }
    }
  }
  JOINT rButtock
  {
    OFFSET -8.77824 4.35084 1.2192
    CHANNELS 3 Zrotation Xrotation Yrotation
    JOINT rThigh
    {
      OFFSET 0 -1.70687 -2.19456
      CHANNELS 3 Zrotation Xrotation Yrotation
      JOINT rShin
      {
        OFFSET 0 -36.8199 0.73152
        CHANNELS 3 Zrotation Xrotation Yrotation
        JOINT rFoot
        {
          OFFSET 0.73152 -45.1104 -5.12064
          CHANNELS 3 Zrotation Xrotation Yrotation
          End Site
          {
            OFFSET -1.1221 -3.69964 12.103
          }
        }
      }
    }
  }
  JOINT lButtock
  {
    OFFSET 8.77824 4.35084 1.2192
    CHANNELS 3 Zrotation Xrotation Yrotation
    JOINT lThigh
    {
      OFFSET 0 -1.70687 -2.19456
      CHANNELS 3 Zrotation Xrotation Yrotation
      JOINT lShin
      {
        OFFSET 0 -36.8199 0.73152
        CHANNELS 3 Zrotation Xrotation Yrotation
        JOINT lFoot
        {
          OFFSET -0.73152 -45.1104 -5.12064
          CHANNELS 3 Zrotation Xrotation Yrotation
          End Site
          {
            OFFSET 1.1221 -3.69964 12.103
          }
        }
      }
    }
  }
}
MOTION
Frames:	4
Frame Time:	0.03333
-21.3213 63.3574 -20.412 -6.4466 -43.461 6.481 1.8957899999999996 14.3057 3.97101 -0.44920100000000013 -6.52064 0.947903 0.6947709999999999 13.6038 7.57698 -1.08072 -26.9759 14.7676 -0.0 0.0 0.0 -0.0 0.0 0.0 -3.6472299999999995e-13 -2.01872e-13 1.6713300000000001e-12 64.83639999999998 46.079600000000006 -17.3047 -28.1374 -39.616200000000006 83.23659999999998 -0.03133409999999999 5.04852 0.711381 4.08528e-09 -1.3217799999999999e-08 -1.01194e-08 7.01009e-09 -2.27108e-08 -1.75041e-08 4.08528e-09 -1.3217799999999999e-08 -1.01195e-08 7.730909999999999 5.47488 0.417314 4.08528e-09 -1.3217799999999999e-08 -1.01194e-08 2.90554 0.965183 0.102902 4.08528e-09 -1.3217799999999999e-08 -1.01194e-08 10.278600000000003 0.731801 0.0259123 4.08527e-09 -1.3217799999999999e-08 -1.01194e-08 2.22167 -0.733487 -0.20892000000000002 -3.64878e-13 -2.01861e-13 1.67106e-12 -60.54590000000001 31.14989999999999 -13.9848 27.9344 -40.7459 -85.26980000000002 0.955814 -26.617999999999995 4.038870000000001 -5.4593200000000005e-09 -1.07703e-09 -4.096720000000001e-09 -9.350240000000001e-09 -2.15532e-09 -7.188699999999999e-09 -5.4593200000000005e-09 -1.07703e-09 -4.09671e-09 -7.730909999999999 5.47488 -0.417314 -5.4593200000000005e-09 -1.07703e-09 -4.09671e-09 -2.90554 0.965183 -0.102902 -5.459329999999999e-09 -1.07703e-09 -4.09671e-09 -10.278600000000003 0.731801 -0.0259123 -5.459310000000001e-09 -1.07703e-09 -4.096720000000001e-09 -2.22167 -0.733487 0.20892000000000002 -2.03217e-16 0.0 -3.88251e-19 -9.15445 -19.3747 -5.439850000000001 -0.670245 56.8751 2.23407 -11.5698 -17.1144 -31.8764 2.03217e-16 0.0 3.88251e-19 45.1476 -46.1256 35.34309999999999 0.654606 49.87709999999999 -0.5455389999999999 -2.12352 19.2867 5.39036
-21.3025 63.1628 -19.6381 -6.3236 -41.6426 6.0712 2.07008 14.0328 3.86334 -0.305824 -6.46039 0.9285910000000002 0.674759 13.489499999999998 7.28996 -0.949141 -27.1275 14.2371 -0.0 0.0 0.0 -0.0 0.0 0.0 -1.7887099999999997e-13 -1.39953e-13 7.25365e-13 65.2183 45.4593 -17.5842 -28.143900000000002 -39.5741 83.1619 -0.0345415 5.29739 0.746649 5.97013e-10 -2.48975e-09 -1.6032e-09 1.01974e-09 -4.27014e-09 -2.76723e-09 5.97016e-10 -2.48975e-09 -1.6032099999999999e-09 7.730909999999999 5.47488 0.417314 5.9701e-10 -2.48975e-09 -1.6032e-09 2.90554 0.965183 0.102902 5.97017e-10 -2.48975e-09 -1.6032e-09 10.278600000000003 0.731801 0.0259123 5.97006e-10 -2.48975e-09 -1.60319e-09 2.22167 -0.733487 -0.20892000000000002 -1.78903e-13 -1.39935e-13 7.25117e-13 -60.52029999999999 31.309100000000004 -14.3543 27.971999999999998 -40.559 -84.9293 0.9249139999999999 -26.222999999999995 3.96946 -6.515049999999999e-10 2.4886900000000004e-09 8.03478e-10 -1.1423899999999998e-09 4.30681e-09 1.38118e-09 -6.51504e-10 2.4887000000000003e-09 8.03488e-10 -7.730909999999999 5.47488 -0.417314 -6.51501e-10 2.4887000000000003e-09 8.03478e-10 -2.90554 0.965183 -0.102902 -6.51506e-10 2.4887000000000003e-09 8.03481e-10 -10.278600000000003 0.731801 -0.0259123 -6.51498e-10 2.4887000000000003e-09 8.03475e-10 -2.22167 -0.733487 0.20892000000000002 -2.03217e-16 0.0 -3.88251e-19 -9.40164 -17.961000000000002 -5.9703 -0.650346 56.60690000000001 2.24985 -11.7635 -17.1557 -32.400299999999994 2.03217e-16 0.0 3.88251e-19 44.91140000000001 -46.6147 36.9816 0.683546 50.098 -0.470082 -1.67784 17.736900000000002 4.81102
-21.2996 62.9918 -18.9396 -6.2912 -39.7908 5.8182 2.14975 13.675 3.90819 -0.0798266 -6.28893 0.952736 0.571749 13.4181 6.86582 -0.686375 -27.3503 13.470299999999998 -0.0 0.0 0.0 -0.0 0.0 0.0 -1.6167500000000002e-13 -3.75407e-13 -3.1057e-14 65.7523 44.5542 -18.0203 -28.1368 -39.6201 83.2434 -0.0380561 5.56119 0.784059 7.89878e-10 -3.02918e-09 -3.77712e-10 1.36288e-09 -5.23069e-09 -6.55462e-10 7.89883e-10 -3.02918e-09 -3.77729e-10 7.730909999999999 5.47488 0.417314 7.89878e-10 -3.02918e-09 -3.77711e-10 2.90554 0.965183 0.102902 7.89883e-10 -3.02918e-09 -3.77709e-10 10.278600000000003 0.731801 0.0259123 7.898770000000001e-10 -3.02918e-09 -3.77709e-10 2.22167 -0.733487 -0.20892000000000002 -1.61668e-13 -3.7540199999999994e-13 -3.12744e-14 -60.208700000000015 31.668499999999998 -15.300800000000002 28.021 -40.3044 -84.4673 0.902493 -25.931099999999997 3.918480000000001 6.90149e-10 3.745330000000001e-09 2.32583e-09 1.1469e-09 6.5598e-09 4.032540000000001e-09 6.901480000000001e-10 3.745330000000001e-09 2.32583e-09 -7.730909999999999 5.47488 -0.417314 6.901510000000002e-10 3.745330000000001e-09 2.32582e-09 -2.90554 0.965183 -0.102902 6.90147e-10 3.745330000000001e-09 2.32583e-09 -10.278600000000003 0.731801 -0.0259123 6.901510000000002e-10 3.74534e-09 2.32582e-09 -2.22167 -0.733487 0.20892000000000002 -2.03217e-16 0.0 -3.88251e-19 -9.47967 -16.6772 -6.286 -0.6309639999999999 56.2975 2.25713 -12.0895 -17.6061 -32.66570000000001 2.03217e-16 0.0 3.88251e-19 44.6917 -47.47039999999999 38.4528 0.723766 50.6242 -0.412373 -1.37337 16.7593 4.47194
-21.3253 62.8454 -18.3091 -6.3431999999999995 -37.8645 5.6361 2.26153 13.3295 4.01325 0.132884 -6.097480000000001 0.9923350000000002 0.432255 13.3515 6.38795 -0.310724 -27.520999999999997 12.6231 -0.0 0.0 0.0 -0.0 0.0 0.0 -1.83709e-13 -5.50231e-13 -4.10192e-13 66.35619999999999 43.596599999999995 -18.4475 -28.1262 -39.68739999999999 83.3635 -0.0404243 5.72901 0.8078799999999999 1.65548e-09 -5.60139e-09 -1.49079e-09 2.8573e-09 -9.67108e-09 -2.58855e-09 1.65549e-09 -5.60139e-09 -1.4908099999999997e-09 7.730909999999999 5.47488 0.417314 1.65548e-09 -5.60139e-09 -1.49079e-09 2.90554 0.965183 0.102902 1.65548e-09 -5.60139e-09 -1.49079e-09 10.278600000000003 0.731801 0.0259123 1.65548e-09 -5.60139e-09 -1.49079e-09 2.22167 -0.733487 -0.20892000000000002 -1.83707e-13 -5.502409999999999e-13 -4.10391e-13 -59.69909999999999 32.1106 -16.577700000000004 28.0727 -40.013 -83.945 0.881004 -25.6466 3.86907 5.03717e-10 3.3600699999999995e-09 1.97749e-09 8.325989999999999e-10 5.86869e-09 3.42073e-09 5.03713e-10 3.3600699999999995e-09 1.9775000000000003e-09 -7.730909999999999 5.47488 -0.417314 5.03718e-10 3.3600699999999995e-09 1.97749e-09 -2.90554 0.965183 -0.102902 5.03714e-10 3.3600699999999995e-09 1.97749e-09 -10.278600000000003 0.731801 -0.0259123 5.03715e-10 3.3600699999999995e-09 1.9774800000000005e-09 -2.22167 -0.733487 0.20892000000000002 -2.03217e-16 0.0 -3.88251e-19 -9.34478 -15.308299999999997 -6.205549999999999 -0.609038 55.869 2.25086 -12.381199999999998 -18.2064 -32.6783 2.03217e-16 0.0 3.88251e-19 44.4755 -48.494400000000006 39.4295 0.764993 51.2825 -0.375847 -1.14949 16.0113 4.204720000000001
